# This file uses centimeters as units for non-parametric coordinates.

mtllib Wall_LP.mtl
g default
v -1.000000 0.000000 0.000000
v 0.000000 0.000000 0.000000
v -1.000000 1.000000 0.000000
v 0.000000 0.630221 0.000000
v -1.000000 1.000000 -3.000000
v 0.000000 0.630221 -3.000000
v -1.000000 0.000000 -3.000000
v 0.000000 0.000000 -3.000000
v -0.500000 0.000000 0.000000
v -0.500000 0.000000 -3.000000
v -0.500000 1.000000 -3.000000
v -0.500000 1.000000 0.000000
vt 0.450944 0.007713
vt 0.450944 0.492726
vt 0.630324 0.007713
vt 0.891570 0.488981
vt 0.630460 0.492726
vt 0.887770 0.009107
vt 0.711295 0.492703
vt 0.711160 0.007691
vt 0.549624 0.492749
vt 0.549489 0.007736
vt 0.349056 0.492726
vt 0.349056 0.007713
vt 0.880982 0.492726
vt 0.880982 0.007713
vt 0.166927 0.278205
vt 0.549556 0.492726
vt 0.468721 0.492726
vt 0.987140 0.007251
vt 0.990087 0.491361
vt 0.333073 0.278205
vt 0.333073 0.361279
vt 0.228364 0.361278
vt 0.333073 0.112058
vt 0.166927 0.112058
vt 0.228364 0.195132
vt 0.333073 0.195132
vt 0.166927 0.028985
vt 0.333073 0.028985
vt 0.333073 0.195132
vt 0.166927 0.195132
vt 0.719311 0.007713
vt 0.719311 0.492726
vt 0.468721 0.007713
vt 0.549556 0.007713
vn 0.000000 0.000000 1.000000
vn 0.000000 0.000000 1.000000
vn 0.000000 0.000000 1.000000
vn 0.000000 0.000000 1.000000
vn 0.346826 0.937929 0.000000
vn 0.346826 0.937929 0.000000
vn 0.594613 0.804012 0.000000
vn 0.594613 0.804012 0.000000
vn 0.000000 0.000000 -1.000000
vn 0.000000 0.000000 -1.000000
vn 0.000000 0.000000 -1.000000
vn 0.000000 0.000000 -1.000000
vn 0.000000 -1.000000 0.000000
vn 0.000000 -1.000000 0.000000
vn 0.000000 -1.000000 0.000000
vn 0.000000 -1.000000 0.000000
vn 1.000000 0.000000 0.000000
vn 1.000000 0.000000 0.000000
vn 1.000000 0.000000 0.000000
vn 1.000000 0.000000 0.000000
vn -1.000000 0.000000 0.000000
vn -1.000000 0.000000 0.000000
vn -1.000000 0.000000 0.000000
vn -1.000000 0.000000 0.000000
vn 0.000000 -1.000000 0.000000
vn 0.000000 -1.000000 0.000000
vn 0.000000 0.000000 -1.000000
vn 0.000000 0.000000 -1.000000
vn 0.000000 1.000000 0.000000
vn 0.000000 1.000000 0.000000
vn 0.000000 0.000000 1.000000
vn 0.000000 0.000000 1.000000
s 1
g pCube16
usemtl initialShadingGroup
f 12/15/1 9/20/2 2/21/3 4/22/4
s 2
f 11/4/5 12/6/6 4/18/7 6/19/8
s 3
f 10/23/9 11/24/10 6/25/11 8/26/12
s 4
f 9/3/13 10/5/14 8/7/15 2/8/16
s off
f 2/1/17 8/2/18 6/11/19 4/12/20
f 7/13/21 1/14/22 3/31/23 5/32/24
s 4
f 7/9/25 10/5/14 9/3/13 1/10/26
s 3
f 5/27/27 11/24/10 10/23/9 7/28/28
s 2
f 3/16/29 12/17/6 11/33/5 5/34/30
s 1
f 1/29/31 9/20/2 12/15/1 3/30/32
